<svg id="IconRightrrow" xmlns="http://www.w3.org/2000/svg" width="40" height="40" viewBox="0 0 40 40">
  <path id="Icon_awesome-chevron-circle-left" data-name="Icon awesome-chevron-circle-left" d="M20.563,40.563a20,20,0,1,0-20-20A20,20,0,0,0,20.563,40.563Zm9.185-18.629L18.821,32.861a1.928,1.928,0,0,1-2.734,0L14.716,31.49a1.927,1.927,0,0,1,0-2.734l8.194-8.194-8.194-8.194a1.927,1.927,0,0,1,0-2.734l1.371-1.371a1.928,1.928,0,0,1,2.734,0L29.748,19.192A1.937,1.937,0,0,1,29.748,21.933Z" transform="translate(-0.563 -0.563)" fill="#22b1c3"/>
</svg>
