<svg id="iconAyahNumber" xmlns="http://www.w3.org/2000/svg" width="35.385" height="33.986" viewBox="0 0 35.385 33.986">
  <g id="Group_87" data-name="Group 87" transform="translate(-13.367 -549.469)">
    <path id="Path_16" data-name="Path 16" d="M6764.759,4626.483s2.417,1.224,0,4c-1.464,2.919-.178,4.726-.178,4.726s1.954,3.412,8.1,1.969c1.954-.458,1.741-1.594,5.348-1.316,1.067.252,1.141.75,1.141.75a1.509,1.509,0,0,0-1.646,0c-.288.9.044,1.143.734,1.557s2.459,1.508,2.165,3.322c-.068,1.617-.752,1.96-.752,1.96s1.63-.386,2.02-2.817-1.134-5.5-3.433-5.782c.429-.654,1.077-1.659.2-2.26a5.058,5.058,0,0,1-4.669-1.1,2.152,2.152,0,0,1,0,3.361,5.16,5.16,0,0,1-3.746,1.352s-6.784-.287-3.682-5.579c.792-1.351,4.3-2.154,5.039-.3-.326-.051-1.648-1.376-2.078.942-.268,1.444-.282,2.021-2.96,2,.738.623,3.244,1.7,5.039.416s2.641-2.453.838-4.822c-1-1.312-3.961-.978-4.738-.356-.054-.657-.9-2.209-2.252-2.036A.568.568,0,0,1,6764.759,4626.483Z" transform="translate(-6733 -4077)" fill="#d17d34"/>
    <path id="Path_17" data-name="Path 17" d="M6781.051,4626.483s-2.417,1.224,0,4c1.464,2.919.178,4.726.178,4.726s-1.954,3.412-8.1,1.969c-1.954-.458-1.741-1.594-5.348-1.316-1.067.252-1.141.75-1.141.75a1.509,1.509,0,0,1,1.646,0c.288.9-.044,1.143-.734,1.557s-2.459,1.508-2.165,3.322c.068,1.617.752,1.96.752,1.96s-1.63-.386-2.02-2.817,1.134-5.5,3.433-5.782c-.429-.654-1.077-1.659-.2-2.26a5.058,5.058,0,0,0,4.669-1.1,2.152,2.152,0,0,0,0,3.361,5.16,5.16,0,0,0,3.746,1.352s6.784-.287,3.682-5.579c-.792-1.351-4.3-2.154-5.039-.3.326-.051,1.648-1.376,2.078.942.268,1.444.282,2.021,2.96,2-.738.623-3.244,1.7-5.039.416s-2.641-2.453-.838-4.822c1-1.312,3.961-.978,4.738-.356.054-.657.9-2.209,2.252-2.036A.568.568,0,0,0,6781.051,4626.483Z" transform="translate(-6750.692 -4077)" fill="#d17d34"/>
  </g>
  <g id="Group_88" data-name="Group 88" transform="translate(0 17)">
    <path id="Path_16-2" data-name="Path 16" d="M6764.759,4643.442s2.417-1.224,0-4c-1.464-2.919-.178-4.726-.178-4.726s1.954-3.412,8.1-1.969c1.954.458,1.741,1.594,5.348,1.316,1.067-.252,1.141-.75,1.141-.75a1.509,1.509,0,0,1-1.646,0c-.288-.9.044-1.143.734-1.557s2.459-1.508,2.165-3.322c-.068-1.617-.752-1.96-.752-1.96s1.63.386,2.02,2.817-1.134,5.5-3.433,5.782c.429.654,1.077,1.659.2,2.26a5.058,5.058,0,0,0-4.669,1.1,2.152,2.152,0,0,0,0-3.361,5.16,5.16,0,0,0-3.746-1.352s-6.784.287-3.682,5.579c.792,1.351,4.3,2.154,5.039.3-.326.051-1.648,1.376-2.078-.942-.268-1.444-.282-2.021-2.96-2,.738-.623,3.244-1.7,5.039-.416s2.641,2.453.838,4.822c-1,1.312-3.961.978-4.738.356-.054.657-.9,2.209-2.252,2.036A.568.568,0,0,0,6764.759,4643.442Z" transform="translate(-6746.367 -4626.469)" fill="#d17d34"/>
    <path id="Path_17-2" data-name="Path 17" d="M6781.051,4643.442s-2.417-1.224,0-4c1.464-2.919.178-4.726.178-4.726s-1.954-3.412-8.1-1.969c-1.954.458-1.741,1.594-5.348,1.316-1.067-.252-1.141-.75-1.141-.75a1.509,1.509,0,0,0,1.646,0c.288-.9-.044-1.143-.734-1.557s-2.459-1.508-2.165-3.322c.068-1.617.752-1.96.752-1.96s-1.63.386-2.02,2.817,1.134,5.5,3.433,5.782c-.429.654-1.077,1.659-.2,2.26a5.058,5.058,0,0,1,4.669,1.1,2.152,2.152,0,0,1,0-3.361,5.16,5.16,0,0,1,3.746-1.352s6.784.287,3.682,5.579c-.792,1.351-4.3,2.154-5.039.3.326.051,1.648,1.376,2.078-.942.268-1.444.282-2.021,2.96-2-.738-.623-3.244-1.7-5.039-.416s-2.641,2.453-.838,4.822c1,1.312,3.961.978,4.738.356.054.657.9,2.209,2.252,2.036A.568.568,0,0,1,6781.051,4643.442Z" transform="translate(-6764.059 -4626.469)" fill="#d17d34"/>
  </g>
</svg>
