<svg xmlns="http://www.w3.org/2000/svg" width="50" height="50" viewBox="0 0 50 50">
  <path id="Icon_awesome-expand-arrows-alt" data-name="Icon awesome-expand-arrows-alt" d="M50,37.071v12.5a2.672,2.672,0,0,1-2.679,2.679h-12.5a2.682,2.682,0,0,1-1.9-4.576l4.04-4.04L25,31.67,13.032,43.645l4.044,4.029a2.682,2.682,0,0,1-1.9,4.576H2.679A2.672,2.672,0,0,1,0,49.571v-12.5a2.682,2.682,0,0,1,4.576-1.9l4.039,4.04L20.587,27.25,8.614,15.275,4.576,19.326A2.682,2.682,0,0,1,0,17.429V4.929A2.672,2.672,0,0,1,2.679,2.25h12.5a2.682,2.682,0,0,1,1.9,4.576l-4.04,4.04L25,22.83,36.968,10.855,32.924,6.826a2.682,2.682,0,0,1,1.9-4.576h12.5A2.672,2.672,0,0,1,50,4.929v12.5a2.682,2.682,0,0,1-4.576,1.9l-4.039-4.04L29.413,27.25,41.386,39.225l4.038-4.04A2.676,2.676,0,0,1,50,37.071Z" transform="translate(0 -2.25)" fill="#22b1c3"/>
</svg>
