<svg id="iconSynonymSearch" xmlns="http://www.w3.org/2000/svg" width="65.455" height="50" viewBox="0 0 65.455 50">
  <path id="Icon_awesome-clone" data-name="Icon awesome-clone" d="M59.318,0c3.389,0,6.136,2.1,6.136,4.688V32.813c0,2.589-2.747,4.688-6.136,4.688H22.5c-3.389,0-6.136-2.1-6.136-4.687V4.688C16.364,2.1,19.111,0,22.5,0H59.318M22.5,40.625c-5.639,0-10.227-3.5-10.227-7.812V12.5H6.136C2.747,12.5,0,14.6,0,17.188V45.313C0,47.9,2.747,50,6.136,50H42.955c3.389,0,6.136-2.1,6.136-4.687V40.625Z" fill="#22b1c3"/>
  <path id="Path_74" data-name="Path 74" d="M-862.116,1252.559s3.915-2.04,7.654,0,3.646,2.91,7.652,1.629,4.929-3.583,8.307-3,2.82,1.976,7,3.553,6.755-2.178,6.755-2.178" transform="translate(818.546 -1276.424) rotate(-3)" fill="none" stroke="#fff" stroke-linecap="round" stroke-width="3"/>
</svg>
