<svg id="IconLeftArrow" xmlns="http://www.w3.org/2000/svg" width="40" height="40" viewBox="0 0 40 40">
  <path id="Icon_awesome-chevron-circle-left" data-name="Icon awesome-chevron-circle-left" d="M20.562,40.563a20,20,0,1,1,20-20A20,20,0,0,1,20.562,40.563ZM11.377,21.933,22.3,32.861a1.928,1.928,0,0,0,2.734,0l1.371-1.371a1.927,1.927,0,0,0,0-2.734l-8.194-8.194,8.194-8.194a1.927,1.927,0,0,0,0-2.734L25.038,8.264a1.927,1.927,0,0,0-2.734,0L11.377,19.192A1.937,1.937,0,0,0,11.377,21.933Z" transform="translate(-0.563 -0.563)" fill="#22b1c3"/>
</svg>
