<svg xmlns="http://www.w3.org/2000/svg" width="29" height="20" viewBox="0 0 29 20">
  <g id="iconSideMenu" transform="translate(1 1)">
    <g id="Icon_material-menu" data-name="Icon material-menu" transform="translate(-4.5 -9)" fill="#fff" stroke-linecap="round" stroke-linejoin="round">
      <path d="M 32 27.5 L 31.5 27.5 L 4.5 27.5 L 4 27.5 L 4 27 L 4 24 L 4 23.5 L 4.5 23.5 L 31.5 23.5 L 32 23.5 L 32 24 L 32 27 L 32 27.5 Z M 32 20 L 31.5 20 L 4.5 20 L 4 20 L 4 19.5 L 4 16.5 L 4 16 L 4.5 16 L 31.5 16 L 32 16 L 32 16.5 L 32 19.5 L 32 20 Z M 32 12.5 L 31.5 12.5 L 4.5 12.5 L 4 12.5 L 4 12 L 4 9 L 4 8.5 L 4.5 8.5 L 31.5 8.5 L 32 8.5 L 32 9 L 32 12 L 32 12.5 Z" stroke="none"/>
      <path d="M 31.5 27 L 31.5 24 L 4.5 24 L 4.5 27 L 31.5 27 M 31.5 19.5 L 31.5 16.5 L 4.5 16.5 L 4.5 19.5 L 31.5 19.5 M 31.5 12 L 31.5 9 L 4.5 9 L 4.5 12 L 31.5 12 M 31.5 28 L 4.5 28 C 3.947720050811768 28 3.5 27.55228042602539 3.5 27 L 3.5 24 C 3.5 23.44771957397461 3.947720050811768 23 4.5 23 L 31.5 23 C 32.05228042602539 23 32.5 23.44771957397461 32.5 24 L 32.5 27 C 32.5 27.55228042602539 32.05228042602539 28 31.5 28 Z M 31.5 20.5 L 4.5 20.5 C 3.947720050811768 20.5 3.5 20.05228042602539 3.5 19.5 L 3.5 16.5 C 3.5 15.94771957397461 3.947720050811768 15.5 4.5 15.5 L 31.5 15.5 C 32.05228042602539 15.5 32.5 15.94771957397461 32.5 16.5 L 32.5 19.5 C 32.5 20.05228042602539 32.05228042602539 20.5 31.5 20.5 Z M 31.5 13 L 4.5 13 C 3.947720050811768 13 3.5 12.55228042602539 3.5 12 L 3.5 9 C 3.5 8.447719573974609 3.947720050811768 8 4.5 8 L 31.5 8 C 32.05228042602539 8 32.5 8.447719573974609 32.5 9 L 32.5 12 C 32.5 12.55228042602539 32.05228042602539 13 31.5 13 Z" stroke="none" fill="#fff"/>
    </g>
  </g>
</svg>
