<svg id="imageQuranWebView" xmlns="http://www.w3.org/2000/svg" xmlns:xlink="http://www.w3.org/1999/xlink" width="675" height="347" viewBox="0 0 675 347">
  <defs>
    <clipPath id="clip-path">
      <rect id="Rectangle_39" data-name="Rectangle 39" width="675" height="347" rx="20" transform="translate(1201 150)" fill="none"/>
    </clipPath>
  </defs>
  <g id="Mask_Group_1" data-name="Mask Group 1" transform="translate(-1201 -150)" clip-path="url(#clip-path)">
    <path id="Path_73" data-name="Path 73" d="M-416.681,790.822c-74.162-47.951,645.974-62.317,661.8-33.337s66.348,358.009,0,377.01-435.371-22.334-539.147-50.385-164.857-74.427-147.735-139.081S-342.518,838.773-416.681,790.822Z" transform="translate(1650.56 -611.715)" fill="#f2f2f2"/>
  </g>
  <g id="imageQuran" transform="translate(222.858 42)">
    <path id="Path_31" data-name="Path 31" d="M463.274,294.061a153.8,153.8,0,1,0-292.228-4.582c21.367-17.951,77.693-30.771,143.819-30.771C386.492,258.707,446.62,273.75,463.274,294.061Z" transform="translate(-158.848 -89.886)" fill="#22b1c3"/>
    <path id="Path_32" data-name="Path 32" d="M430.019,221.734A133.26,133.26,0,0,0,301.551,390.02a191.015,191.015,0,0,1,32.362-10.332c23.954-7.291,56.986-11.8,93.465-11.8,37.9,0,72.087,4.866,96.231,12.665,13.492,3.363,25.071,7.416,34.161,11.983a133.248,133.248,0,0,0-127.751-170.8Z" transform="translate(-270.952 -201.226)" fill="#00a1a5"/>
    <g id="Group_119" data-name="Group 119" transform="translate(0 92.213)">
      <path id="Path_33" data-name="Path 33" d="M2007.366,789.955" transform="translate(-1715.399 -773.278)" fill="#fff7f3"/>
      <path id="Path_34" data-name="Path 34" d="M441.726,1227.682c0,25.822-68.5,46.755-152.994,46.755S130.26,1253.5,130.26,1227.682s73.976-46.755,158.473-46.755S441.726,1201.86,441.726,1227.682Z" transform="translate(-130.26 -1103.438)" fill="#d57e32"/>
      <path id="Path_35" data-name="Path 35" d="M308.069,1362.8H571.316l-11.88-46.251H319.95Z" transform="translate(-280.412 -1217.964)" fill="#9b5627"/>
      <g id="Group_118" data-name="Group 118" transform="translate(24.36)">
        <g id="Group_103" data-name="Group 103" transform="translate(0)">
          <g id="Group_100" data-name="Group 100">
            <path id="Path_36" data-name="Path 36" d="M566.3,908.651c-3.43,5.176-13.655,5.606-23.554.811-10.391-5.034-16.487-13.92-13.615-19.848s13.623-6.653,24.014-1.619a35.2,35.2,0,0,1,6.288,3.89l-3.107-7.585L335.3,804.218l-27.234,29.131,263.247,96.808,3.3-9.193Z" transform="translate(-304.772 -785.323)" fill="#440235"/>
            <path id="Path_37" data-name="Path 37" d="M1757.93,1240.084v7.979l-10.325-8.081a11.775,11.775,0,0,0-6.455-2.475l-12.795-.875-1.04-6.763,7.5-3.869S1754.5,1234.39,1757.93,1240.084Z" transform="translate(-1503.267 -1141.5)" fill="#440235"/>
            <path id="Path_38" data-name="Path 38" d="M295.183,908.651c3.43,5.176,13.655,5.606,23.554.811,10.391-5.034,16.487-13.92,13.615-19.848s-13.623-6.653-24.014-1.619a35.194,35.194,0,0,0-6.288,3.89l3.107-7.585,221.025-80.082,27.234,29.131L290.169,930.157l-3.3-9.193Z" transform="translate(-286.872 -785.323)" fill="#440235"/>
            <path id="Path_39" data-name="Path 39" d="M384.451,1240.084v7.979l10.325-8.081a11.776,11.776,0,0,1,6.455-2.475l12.794-.875,1.04-6.763-7.5-3.869S387.883,1234.39,384.451,1240.084Z" transform="translate(-369.273 -1141.5)" fill="#440235"/>
            <path id="Path_40" data-name="Path 40" d="M295.183,856.471c3.43,5.176,13.655,5.606,23.554.811,10.391-5.034,16.487-13.92,13.615-19.848s-13.623-6.653-24.014-1.619a35.18,35.18,0,0,0-6.288,3.89l5.35-7.748,221.025-80.082,24.991,29.293L290.8,880.679l-3.928-3.916Z" transform="translate(-286.872 -741.122)" fill="#44262b"/>
            <path id="Path_41" data-name="Path 41" d="M566.3,856.471c-3.43,5.176-13.655,5.606-23.554.811-10.391-5.034-16.487-13.92-13.615-19.848s13.623-6.653,24.014-1.619a35.18,35.18,0,0,1,6.288,3.89l-.864-7.748L337.546,751.876l-29.477,29.293,262.615,99.51,3.928-3.916Z" transform="translate(-304.772 -741.122)" fill="#44262b"/>
            <path id="Path_42" data-name="Path 42" d="M1273.106,751.876,1168.717,789.7v40.5l54.632-20.7,74.748-28.324Z" transform="translate(-1031.554 -741.122)" fill="#440235"/>
            <g id="Group_96" data-name="Group 96" transform="translate(137.163)">
              <path id="Path_43" data-name="Path 43" d="M1273.106,713.859l-104.389,37.822v40.5l54.632-20.7,73.673-27.916a2.176,2.176,0,0,0,1.344-1.526h0a2.176,2.176,0,0,0-.534-2Z" transform="translate(-1168.717 -709.018)" fill="#4da8bb"/>
              <path id="Path_44" data-name="Path 44" d="M1297.833,740.031l-24.726-26.172-104.389,37.822v37.965l129.69-48.405A2.175,2.175,0,0,0,1297.833,740.031Z" transform="translate(-1168.717 -709.018)" fill="#3b8089"/>
              <path id="Path_45" data-name="Path 45" d="M1273.106,682.738,1168.717,720.56v40.5l54.632-20.7,73.62-26.182,1.128-8.7Z" transform="translate(-1168.717 -682.738)" fill="#fcd2bb"/>
              <path id="Path_46" data-name="Path 46" d="M1168.717,884.488l54.632-20.7,73.62-26.182,1.128-8.7-129.38,54.325Z" transform="translate(-1168.717 -806.17)" fill="#fff7f3"/>
            </g>
            <g id="Group_97" data-name="Group 97" transform="translate(137.163)">
              <path id="Path_47" data-name="Path 47" d="M1273.106,713.859l-104.389,37.822v40.5l54.632-20.7,73.673-27.916a2.176,2.176,0,0,0,1.344-1.526h0a2.176,2.176,0,0,0-.534-2Z" transform="translate(-1168.717 -709.018)" fill="#4da8bb"/>
              <path id="Path_48" data-name="Path 48" d="M1297.833,740.031l-24.726-26.172-104.389,37.822v37.965l129.69-48.405A2.175,2.175,0,0,0,1297.833,740.031Z" transform="translate(-1168.717 -709.018)" fill="#3b8089"/>
              <path id="Path_49" data-name="Path 49" d="M1273.106,682.738,1168.717,720.56v40.5l54.632-20.7,73.62-26.182,1.128-8.7Z" transform="translate(-1168.717 -682.738)" fill="#fcd2bb"/>
              <path id="Path_50" data-name="Path 50" d="M1168.717,884.488l54.632-20.7,73.62-26.182,1.128-8.7-129.38,49.011Z" transform="translate(-1168.717 -806.17)" fill="#fff7f3"/>
            </g>
            <g id="Group_98" data-name="Group 98" transform="translate(7.473)">
              <path id="Path_51" data-name="Path 51" d="M360.236,713.859l104.389,37.822v40.5l-54.632-20.7L336.32,743.56a2.176,2.176,0,0,1-1.344-1.526h0a2.175,2.175,0,0,1,.534-2Z" transform="translate(-334.916 -709.018)" fill="#4da8bb"/>
              <path id="Path_52" data-name="Path 52" d="M335.616,740.031l24.726-26.172,104.389,37.822v37.965l-129.69-48.405A2.174,2.174,0,0,1,335.616,740.031Z" transform="translate(-335.021 -709.018)" fill="#3b8089"/>
              <path id="Path_53" data-name="Path 53" d="M368.148,682.738,472.538,720.56v40.5l-54.632-20.7-73.62-26.182.146-9.812Z" transform="translate(-342.828 -682.738)" fill="#cca693"/>
              <path id="Path_54" data-name="Path 54" d="M472.538,878.447l-54.632-20.7-73.62-26.182.146-9.812,128.106,50.124Z" transform="translate(-342.828 -800.129)" fill="#fcd2bb"/>
            </g>
            <g id="Group_99" data-name="Group 99" transform="translate(0 40.047)">
              <path id="Path_55" data-name="Path 55" d="M1221.477,1176.33l65.979,25q-4.412-22.7-9.494-45.259Z" transform="translate(-1076.107 -1122.496)" fill="#440235"/>
              <rect id="Rectangle_27" data-name="Rectangle 27" width="9.766" height="283.168" transform="matrix(0.338, -0.941, 0.941, 0.338, 0, 9.193)" fill="#6b3d44"/>
              <circle id="Ellipse_3" data-name="Ellipse 3" cx="10.658" cy="10.658" r="10.658" transform="translate(122.09 53.198) rotate(-45)" fill="#6b3d44"/>
            </g>
          </g>
          <g id="Group_102" data-name="Group 102" transform="translate(0 40.047)">
            <g id="Group_101" data-name="Group 101" transform="translate(0 0)">
              <path id="Path_56" data-name="Path 56" d="M728.9,1176.33l-65.979,25q4.412-22.7,9.495-45.259Z" transform="translate(-604.433 -1122.496)" fill="#440235"/>
              <rect id="Rectangle_28" data-name="Rectangle 28" width="9.766" height="283.168" transform="translate(3.297 104.788) rotate(-109.73)" fill="#6b3d44"/>
            </g>
          </g>
        </g>
        <circle id="Ellipse_4" data-name="Ellipse 4" cx="7.084" cy="7.084" r="7.084" transform="translate(127.882 89.739) rotate(-23.175)" fill="#4f2f35"/>
        <circle id="Ellipse_5" data-name="Ellipse 5" cx="5.523" cy="5.523" r="5.523" transform="translate(130.553 97.594) rotate(-76.92)" fill="#440235"/>
        <g id="Group_110" data-name="Group 110" transform="translate(17.71 3.431)">
          <path id="Path_57" data-name="Path 57" d="M418.294,704.8l-17.559,19.3s100.027,32.387,116.4,44.816V740.526S433.683,707.194,418.294,704.8Z" transform="translate(-400.735 -704.798)" fill="#fcd2bb"/>
          <g id="Group_104" data-name="Group 104" transform="translate(6.34 2.173)">
            <path id="Path_58" data-name="Path 58" d="M549.352,775.634l-.38-.25c-8.254-5.413-36.938-16.337-59.548-24.547-24.509-8.9-47.355-16.616-47.583-16.693l-.344-.116L454.5,718.77l.136.021c13.7,2.133,93.752,33.854,94.559,34.174l.155.062Zm-107.01-41.84c6.111,2.07,90.185,30.643,106.519,40.935V753.361c-3.978-1.575-80.429-31.8-94.163-34.062Z" transform="translate(-441.497 -718.77)" fill="#cca693"/>
          </g>
          <g id="Group_105" data-name="Group 105" transform="translate(19.626 5.298)">
            <path id="Path_59" data-name="Path 59" d="M618.682,771.8a.408.408,0,0,1-.18-.042c-14.883-7.3-90.544-31.849-91.307-32.1a.41.41,0,1,1,.252-.779c.763.247,76.48,24.813,91.415,32.14a.41.41,0,0,1-.181.778Z" transform="translate(-526.911 -738.86)" fill="#fff7f3"/>
          </g>
          <g id="Group_106" data-name="Group 106" transform="translate(19.258 7.86)">
            <path id="Path_60" data-name="Path 60" d="M616.318,788.271a.408.408,0,0,1-.18-.042c-14.883-7.3-90.544-31.849-91.307-32.1a.41.41,0,0,1,.253-.779c.763.247,76.48,24.813,91.415,32.14a.41.41,0,0,1-.181.778Z" transform="translate(-524.547 -755.333)" fill="#fff7f3"/>
          </g>
          <g id="Group_107" data-name="Group 107" transform="translate(16.326 10.587)">
            <path id="Path_61" data-name="Path 61" d="M600.23,807.448a.408.408,0,0,1-.18-.042c-14.885-7.3-93.283-33.483-94.073-33.747a.41.41,0,1,1,.259-.777c.791.264,79.241,26.462,94.175,33.789a.41.41,0,0,1-.181.778Z" transform="translate(-505.696 -772.86)" fill="#fff7f3"/>
          </g>
          <g id="Group_108" data-name="Group 108" transform="translate(14.063 13.132)">
            <path id="Path_62" data-name="Path 62" d="M587.945,824.915a.409.409,0,0,1-.18-.042c-14.886-7.3-95.525-34.575-96.338-34.85a.41.41,0,1,1,.262-.776c.813.275,81.5,27.565,96.436,34.891a.41.41,0,0,1-.181.778Z" transform="translate(-491.148 -789.225)" fill="#fff7f3"/>
          </g>
          <g id="Group_109" data-name="Group 109" transform="translate(11.8 15.677)">
            <path id="Path_63" data-name="Path 63" d="M576.2,842.678a.405.405,0,0,1-.18-.042c-14.887-7.3-98.3-35.959-99.139-36.248a.41.41,0,0,1,.266-.775c.841.289,84.3,28.962,99.234,36.288a.41.41,0,0,1-.181.778Z" transform="translate(-476.601 -805.591)" fill="#fff7f3"/>
          </g>
        </g>
        <g id="Group_117" data-name="Group 117" transform="translate(139.838 3.431)">
          <path id="Path_64" data-name="Path 64" d="M1284.755,704.8l17.559,19.3s-100.027,32.387-116.4,44.816V740.526S1269.367,707.194,1284.755,704.8Z" transform="translate(-1185.912 -704.798)" fill="#ffece3"/>
          <g id="Group_111" data-name="Group 111" transform="translate(2.207 2.173)">
            <path id="Path_65" data-name="Path 65" d="M1200.1,753.027l.155-.062c.807-.32,80.857-32.041,94.559-34.174l.136-.021,13.005,15.258-.344.116c-.228.077-23.074,7.793-47.583,16.693-22.61,8.211-51.294,19.134-59.548,24.547l-.38.25Zm94.654-33.728c-13.734,2.259-90.185,32.487-94.163,34.062v21.369c16.334-10.291,100.407-38.864,106.519-40.935Z" transform="translate(-1200.104 -718.77)" fill="#cca693"/>
          </g>
          <g id="Group_112" data-name="Group 112" transform="translate(4.597 5.298)">
            <path id="Path_66" data-name="Path 66" d="M1215.874,771.8a.408.408,0,0,0,.18-.042c14.884-7.3,90.544-31.849,91.307-32.1a.41.41,0,0,0-.252-.779c-.763.247-76.48,24.813-91.415,32.14a.41.41,0,0,0,.181.778Z" transform="translate(-1215.464 -738.86)" fill="#fff"/>
          </g>
          <g id="Group_113" data-name="Group 113" transform="translate(4.964 7.86)">
            <path id="Path_67" data-name="Path 67" d="M1218.238,788.271a.407.407,0,0,0,.18-.042c14.883-7.3,90.544-31.849,91.307-32.1a.41.41,0,1,0-.252-.779c-.763.247-76.48,24.813-91.415,32.14a.41.41,0,0,0,.181.778Z" transform="translate(-1217.828 -755.333)" fill="#fff"/>
          </g>
          <g id="Group_114" data-name="Group 114" transform="translate(5.133 10.587)">
            <path id="Path_68" data-name="Path 68" d="M1219.323,807.448a.408.408,0,0,0,.18-.042c14.885-7.3,93.283-33.483,94.073-33.747a.41.41,0,1,0-.259-.777c-.791.264-79.241,26.462-94.175,33.789a.41.41,0,0,0,.181.778Z" transform="translate(-1218.913 -772.86)" fill="#fff"/>
          </g>
          <g id="Group_115" data-name="Group 115" transform="translate(5.133 13.132)">
            <path id="Path_69" data-name="Path 69" d="M1219.323,824.915a.409.409,0,0,0,.18-.042c14.885-7.3,95.525-34.575,96.338-34.85a.41.41,0,0,0-.262-.776c-.813.275-81.5,27.565-96.436,34.891a.41.41,0,0,0,.181.778Z" transform="translate(-1218.913 -789.225)" fill="#fff"/>
          </g>
          <g id="Group_116" data-name="Group 116" transform="translate(4.597 15.677)">
            <path id="Path_70" data-name="Path 70" d="M1215.874,842.678a.405.405,0,0,0,.18-.042c14.887-7.3,98.3-35.959,99.139-36.248a.41.41,0,0,0-.266-.775c-.841.289-84.3,28.962-99.234,36.288a.41.41,0,0,0,.181.778Z" transform="translate(-1215.464 -805.591)" fill="#fff"/>
          </g>
        </g>
      </g>
    </g>
  </g>
</svg>
