<svg id="imageQuranMobileView" xmlns="http://www.w3.org/2000/svg" width="326.528" height="231.746" viewBox="0 0 326.528 231.746">
  <g id="Group_152" data-name="Group 152" transform="translate(-772.301 -134.127)">
    <path id="Path_76" data-name="Path 76" d="M-422.473,787.958c-36.268-29.538,215.61-87.03,287.844-19.755s18.5,166.8-31.035,184.752-161.922,23.57-205.309,0-59.874-43-51.5-82.822S-386.2,817.5-422.473,787.958Z" transform="translate(1198.324 -602.722)" fill="#f2f2f2"/>
  </g>
  <g id="Group_151" data-name="Group 151" transform="translate(-75.996 -68.89)">
    <path id="Path_31" data-name="Path 31" d="M372.964,232.425a107.37,107.37,0,1,0-204.011-3.2c14.917-12.532,54.239-21.482,100.4-21.482C319.361,207.744,361.337,218.245,372.964,232.425Z" transform="translate(-30.178)" fill="#22b1c3"/>
    <path id="Path_32" data-name="Path 32" d="M389.823,221.734a93.032,93.032,0,0,0-89.686,117.484,133.352,133.352,0,0,1,22.593-7.213c16.723-5.09,39.783-8.236,65.25-8.236,26.462,0,50.326,3.4,67.181,8.842a117.271,117.271,0,0,1,23.848,8.365,93.023,93.023,0,0,0-89.185-119.242Z" transform="translate(-148.515 -117.531)" fill="#00a1a5"/>
    <g id="Group_119" data-name="Group 119" transform="translate(130.26 154.262)">
      <path id="Path_33" data-name="Path 33" d="M2007.366,789.955" transform="translate(-1803.537 -778.313)" fill="#fff7f3"/>
      <path id="Path_34" data-name="Path 34" d="M347.7,1213.568c0,18.027-47.82,32.64-106.808,32.64s-110.633-14.614-110.633-32.64,51.645-32.641,110.633-32.641S347.7,1195.541,347.7,1213.568Z" transform="translate(-130.26 -1126.83)" fill="#d57e32"/>
      <path id="Path_35" data-name="Path 35" d="M308.069,1348.836H491.847l-8.294-32.289H316.363Z" transform="translate(-288.761 -1247.724)" fill="#9b5627"/>
      <g id="Group_118" data-name="Group 118" transform="translate(17.006)">
        <g id="Group_103" data-name="Group 103" transform="translate(0)">
          <g id="Group_100" data-name="Group 100">
            <path id="Path_36" data-name="Path 36" d="M488.347,877.125c-2.394,3.613-9.533,3.914-16.443.566-7.254-3.514-11.51-9.718-9.505-13.856s9.511-4.644,16.765-1.13a24.573,24.573,0,0,1,4.39,2.716l-2.169-5.3-154.3-55.907-19.013,20.337,183.778,67.584,2.3-6.418Z" transform="translate(-305.767 -791.027)" fill="#440235"/>
            <path id="Path_37" data-name="Path 37" d="M1748.688,1235.832v5.57l-7.208-5.642a8.221,8.221,0,0,0-4.506-1.728l-8.932-.61-.726-4.721,5.233-2.7S1746.292,1231.857,1748.688,1235.832Z" transform="translate(-1570.902 -1167.009)" fill="#440235"/>
            <path id="Path_38" data-name="Path 38" d="M292.674,877.125c2.394,3.613,9.533,3.914,16.443.566,7.254-3.514,11.51-9.718,9.505-13.856s-9.511-4.644-16.765-1.13a24.573,24.573,0,0,0-4.39,2.716l2.169-5.3,154.3-55.907,19.013,20.337L289.174,892.139l-2.3-6.418Z" transform="translate(-286.872 -791.027)" fill="#440235"/>
            <path id="Path_39" data-name="Path 39" d="M384.451,1235.832v5.57l7.208-5.642a8.222,8.222,0,0,1,4.507-1.728l8.932-.61.726-4.721-5.233-2.7S386.847,1231.857,384.451,1235.832Z" transform="translate(-373.855 -1167.009)" fill="#440235"/>
            <path id="Path_40" data-name="Path 40" d="M292.674,824.9c2.394,3.613,9.533,3.914,16.443.566,7.254-3.514,11.51-9.718,9.505-13.856s-9.511-4.644-16.765-1.13a24.562,24.562,0,0,0-4.39,2.716l3.735-5.409,154.3-55.907,17.447,20.45L289.615,841.8l-2.743-2.734Z" transform="translate(-286.872 -744.368)" fill="#44262b"/>
            <path id="Path_41" data-name="Path 41" d="M488.347,824.9c-2.394,3.613-9.533,3.914-16.443.566-7.254-3.514-11.51-9.718-9.505-13.856s9.511-4.644,16.765-1.13a24.562,24.562,0,0,1,4.39,2.716l-.6-5.409-154.3-55.907-20.578,20.45L491.406,841.8l2.743-2.734Z" transform="translate(-305.767 -744.368)" fill="#44262b"/>
            <path id="Path_42" data-name="Path 42" d="M1241.593,751.876l-72.876,26.4v28.271l38.14-14.452,52.183-19.773Z" transform="translate(-1072.96 -744.368)" fill="#440235"/>
            <g id="Group_96" data-name="Group 96" transform="translate(95.757)">
              <path id="Path_43" data-name="Path 43" d="M1241.593,713.859l-72.876,26.4v28.271l38.14-14.452,51.432-19.489a1.519,1.519,0,0,0,.939-1.065h0a1.519,1.519,0,0,0-.373-1.4Z" transform="translate(-1168.717 -710.48)" fill="#4da8bb"/>
              <path id="Path_44" data-name="Path 44" d="M1258.855,732.13l-17.262-18.271-72.876,26.4v26.5l90.54-33.793A1.518,1.518,0,0,0,1258.855,732.13Z" transform="translate(-1168.717 -710.48)" fill="#3b8089"/>
              <path id="Path_45" data-name="Path 45" d="M1241.593,682.738l-72.876,26.4v28.271l38.14-14.452,51.4-18.278.787-6.073Z" transform="translate(-1168.717 -682.738)" fill="#fcd2bb"/>
              <path id="Path_46" data-name="Path 46" d="M1168.717,867.708l38.14-14.452,51.4-18.278.787-6.073-90.323,37.925Z" transform="translate(-1168.717 -813.033)" fill="#fff7f3"/>
            </g>
            <g id="Group_97" data-name="Group 97" transform="translate(95.757)">
              <path id="Path_47" data-name="Path 47" d="M1241.593,713.859l-72.876,26.4v28.271l38.14-14.452,51.432-19.489a1.519,1.519,0,0,0,.939-1.065h0a1.519,1.519,0,0,0-.373-1.4Z" transform="translate(-1168.717 -710.48)" fill="#4da8bb"/>
              <path id="Path_48" data-name="Path 48" d="M1258.855,732.13l-17.262-18.271-72.876,26.4v26.5l90.54-33.793A1.518,1.518,0,0,0,1258.855,732.13Z" transform="translate(-1168.717 -710.48)" fill="#3b8089"/>
              <path id="Path_49" data-name="Path 49" d="M1241.593,682.738l-72.876,26.4v28.271l38.14-14.452,51.4-18.278.787-6.073Z" transform="translate(-1168.717 -682.738)" fill="#fcd2bb"/>
              <path id="Path_50" data-name="Path 50" d="M1168.717,867.708l38.14-14.452,51.4-18.278.787-6.073-90.323,34.216Z" transform="translate(-1168.717 -813.033)" fill="#fff7f3"/>
            </g>
            <g id="Group_98" data-name="Group 98" transform="translate(5.217)">
              <path id="Path_51" data-name="Path 51" d="M352.592,713.859l72.876,26.4v28.271l-38.14-14.452L335.9,734.594a1.519,1.519,0,0,1-.939-1.065h0a1.519,1.519,0,0,1,.373-1.4Z" transform="translate(-334.916 -710.48)" fill="#4da8bb"/>
              <path id="Path_52" data-name="Path 52" d="M335.442,732.13,352.7,713.859l72.876,26.4v26.5l-90.54-33.793A1.518,1.518,0,0,1,335.442,732.13Z" transform="translate(-335.027 -710.48)" fill="#3b8089"/>
              <path id="Path_53" data-name="Path 53" d="M360.945,682.738l72.876,26.4v28.271l-38.14-14.452-51.4-18.278.1-6.85Z" transform="translate(-343.268 -682.738)" fill="#cca693"/>
              <path id="Path_54" data-name="Path 54" d="M433.821,861.332l-38.14-14.452-51.4-18.278.1-6.85,89.434,34.992Z" transform="translate(-343.268 -806.656)" fill="#fcd2bb"/>
            </g>
            <g id="Group_99" data-name="Group 99" transform="translate(0 27.958)">
              <path id="Path_55" data-name="Path 55" d="M1221.477,1170.215l46.062,17.454q-3.08-15.846-6.628-31.6Z" transform="translate(-1119.991 -1132.632)" fill="#440235"/>
              <rect id="Rectangle_27" data-name="Rectangle 27" width="6.818" height="197.685" transform="matrix(0.338, -0.941, 0.941, 0.338, 0, 6.418)" fill="#6b3d44"/>
              <circle id="Ellipse_3" data-name="Ellipse 3" cx="7.441" cy="7.441" r="7.441" transform="translate(85.234 37.139) rotate(-45)" fill="#6b3d44"/>
            </g>
          </g>
          <g id="Group_102" data-name="Group 102" transform="translate(0 27.957)">
            <g id="Group_101" data-name="Group 101" transform="translate(0 0)">
              <path id="Path_56" data-name="Path 56" d="M708.987,1170.215l-46.062,17.454q3.08-15.846,6.628-31.6Z" transform="translate(-622.091 -1132.632)" fill="#440235"/>
              <rect id="Rectangle_28" data-name="Rectangle 28" width="6.818" height="197.685" transform="translate(2.302 73.155) rotate(-109.73)" fill="#6b3d44"/>
            </g>
          </g>
        </g>
        <circle id="Ellipse_4" data-name="Ellipse 4" cx="4.946" cy="4.946" r="4.946" transform="translate(89.277 62.649) rotate(-23.175)" fill="#4f2f35"/>
        <circle id="Ellipse_5" data-name="Ellipse 5" cx="3.856" cy="3.856" r="3.856" transform="translate(91.142 68.133) rotate(-76.92)" fill="#440235"/>
        <g id="Group_110" data-name="Group 110" transform="translate(12.364 2.395)">
          <path id="Path_57" data-name="Path 57" d="M412.993,704.8l-12.258,13.476s69.831,22.61,81.263,31.287V729.74S423.737,706.47,412.993,704.8Z" transform="translate(-400.735 -704.798)" fill="#fcd2bb"/>
          <g id="Group_104" data-name="Group 104" transform="translate(4.426 1.517)">
            <path id="Path_58" data-name="Path 58" d="M516.793,758.468l-.266-.174c-5.762-3.779-25.787-11.405-41.572-17.137-17.11-6.213-33.059-11.6-33.219-11.654l-.24-.081,9.079-10.652.095.015c9.565,1.489,65.45,23.634,66.014,23.858l.108.043Zm-74.706-29.209c4.267,1.445,62.96,21.393,74.363,28.577V742.919c-2.777-1.1-56.149-22.2-65.737-23.78Z" transform="translate(-441.497 -718.77)" fill="#cca693"/>
          </g>
          <g id="Group_105" data-name="Group 105" transform="translate(13.701 3.699)">
            <path id="Path_59" data-name="Path 59" d="M590.978,761.855a.284.284,0,0,1-.126-.029c-10.391-5.1-63.211-22.234-63.743-22.407a.286.286,0,1,1,.176-.544c.533.173,53.392,17.322,63.819,22.438a.286.286,0,0,1-.126.543Z" transform="translate(-526.911 -738.86)" fill="#fff7f3"/>
          </g>
          <g id="Group_106" data-name="Group 106" transform="translate(13.444 5.487)">
            <path id="Path_60" data-name="Path 60" d="M588.614,778.328a.285.285,0,0,1-.126-.029c-10.39-5.1-63.211-22.234-63.743-22.407a.286.286,0,1,1,.176-.544c.533.173,53.392,17.322,63.819,22.438a.286.286,0,0,1-.126.543Z" transform="translate(-524.547 -755.333)" fill="#fff7f3"/>
          </g>
          <g id="Group_107" data-name="Group 107" transform="translate(11.397 7.391)">
            <path id="Path_61" data-name="Path 61" d="M571.692,797.007a.285.285,0,0,1-.126-.029c-10.391-5.1-65.123-23.375-65.675-23.56a.286.286,0,1,1,.181-.542c.552.184,55.32,18.474,65.746,23.589a.286.286,0,0,1-.126.543Z" transform="translate(-505.696 -772.86)" fill="#fff7f3"/>
          </g>
          <g id="Group_108" data-name="Group 108" transform="translate(9.818 9.168)">
            <path id="Path_62" data-name="Path 62" d="M558.724,814.141a.286.286,0,0,1-.126-.029c-10.392-5.1-66.688-24.138-67.255-24.329a.286.286,0,1,1,.183-.542c.568.192,56.9,19.243,67.324,24.358a.286.286,0,0,1-.126.543Z" transform="translate(-491.148 -789.225)" fill="#fff7f3"/>
          </g>
          <g id="Group_109" data-name="Group 109" transform="translate(8.238 10.945)">
            <path id="Path_63" data-name="Path 63" d="M546.131,831.482a.283.283,0,0,1-.126-.029c-10.393-5.1-68.624-25.1-69.211-25.306a.286.286,0,0,1,.186-.541c.587.2,58.853,20.219,69.277,25.333a.286.286,0,0,1-.126.543Z" transform="translate(-476.601 -805.591)" fill="#fff7f3"/>
          </g>
        </g>
        <g id="Group_117" data-name="Group 117" transform="translate(97.624 2.395)">
          <path id="Path_64" data-name="Path 64" d="M1254.917,704.8l12.258,13.476s-69.831,22.61-81.263,31.287V729.74S1244.173,706.47,1254.917,704.8Z" transform="translate(-1185.912 -704.798)" fill="#ffece3"/>
          <g id="Group_111" data-name="Group 111" transform="translate(1.541 1.517)">
            <path id="Path_65" data-name="Path 65" d="M1200.1,742.686l.108-.043c.563-.224,56.448-22.369,66.013-23.858l.095-.015,9.079,10.652-.24.081c-.159.054-16.109,5.441-33.219,11.654-15.784,5.732-35.809,13.358-41.572,17.137l-.266.174Zm66.08-23.547c-9.588,1.577-62.96,22.68-65.737,23.78v14.918c11.4-7.185,70.1-27.132,74.363-28.577Z" transform="translate(-1200.104 -718.77)" fill="#cca693"/>
          </g>
          <g id="Group_112" data-name="Group 112" transform="translate(3.209 3.699)">
            <path id="Path_66" data-name="Path 66" d="M1215.75,761.855a.284.284,0,0,0,.126-.029c10.391-5.1,63.211-22.234,63.743-22.407a.286.286,0,0,0-.176-.544c-.533.173-53.392,17.322-63.819,22.438a.286.286,0,0,0,.126.543Z" transform="translate(-1215.464 -738.86)" fill="#fff"/>
          </g>
          <g id="Group_113" data-name="Group 113" transform="translate(3.466 5.487)">
            <path id="Path_67" data-name="Path 67" d="M1218.114,778.328a.283.283,0,0,0,.126-.029c10.39-5.1,63.211-22.234,63.743-22.407a.286.286,0,0,0-.176-.544c-.533.173-53.392,17.322-63.819,22.438a.286.286,0,0,0,.126.543Z" transform="translate(-1217.828 -755.333)" fill="#fff"/>
          </g>
          <g id="Group_114" data-name="Group 114" transform="translate(3.583 7.391)">
            <path id="Path_68" data-name="Path 68" d="M1219.2,797.007a.284.284,0,0,0,.126-.029c10.391-5.1,65.123-23.375,65.675-23.56a.286.286,0,1,0-.181-.542c-.552.184-55.32,18.474-65.746,23.589a.286.286,0,0,0,.126.543Z" transform="translate(-1218.913 -772.86)" fill="#fff"/>
          </g>
          <g id="Group_115" data-name="Group 115" transform="translate(3.583 9.168)">
            <path id="Path_69" data-name="Path 69" d="M1219.2,814.141a.286.286,0,0,0,.126-.029c10.392-5.1,66.688-24.138,67.255-24.329a.286.286,0,0,0-.183-.542c-.568.192-56.9,19.243-67.324,24.358a.286.286,0,0,0,.126.543Z" transform="translate(-1218.913 -789.225)" fill="#fff"/>
          </g>
          <g id="Group_116" data-name="Group 116" transform="translate(3.209 10.945)">
            <path id="Path_70" data-name="Path 70" d="M1215.75,831.482a.283.283,0,0,0,.126-.029c10.393-5.1,68.624-25.1,69.211-25.306a.286.286,0,0,0-.186-.541c-.587.2-58.853,20.219-69.277,25.333a.286.286,0,0,0,.126.543Z" transform="translate(-1215.464 -805.591)" fill="#fff"/>
          </g>
        </g>
      </g>
    </g>
  </g>
</svg>
